<svg xmlns="http://www.w3.org/2000/svg" xmlns:xlink="http://www.w3.org/1999/xlink" width="300" zoomAndPan="magnify" viewBox="0 0 224.87999 225" height="300" preserveAspectRatio="xMidYMid meet" version="1.0"><defs><clipPath id="d22149f7d7"><path d="M 0 0.0585938 L 224.761719 0.0585938 L 224.761719 224.9375 L 0 224.9375 Z M 0 0.0585938 " clip-rule="nonzero"/></clipPath><clipPath id="0210971f83"><path d="M 54 69.363281 L 170.886719 69.363281 L 170.886719 155.566406 L 54 155.566406 Z M 54 69.363281 " clip-rule="nonzero"/></clipPath></defs><g clip-path="url(#d22149f7d7)"><path fill="#ffffff" d="M 0 0.0585938 L 224.878906 0.0585938 L 224.878906 224.941406 L 0 224.941406 Z M 0 0.0585938 " fill-opacity="1" fill-rule="nonzero"/><path fill="#0a192f" d="M 0 0.0585938 L 224.878906 0.0585938 L 224.878906 224.941406 L 0 224.941406 Z M 0 0.0585938 " fill-opacity="1" fill-rule="nonzero"/></g><g clip-path="url(#0210971f83)"><path fill="#ffffff" d="M 154.484375 86.183594 C 149.171875 87.464844 143.652344 88.117188 138.269531 89.117188 C 132.863281 90.117188 127.503906 91.285156 122.144531 92.5625 C 121.492188 92.726562 121.214844 91.75 121.867188 91.585938 C 127.296875 90.1875 132.722656 88.90625 138.222656 87.765625 C 143.488281 86.695312 148.941406 85.507812 154.320312 85.042969 C 154.976562 84.972656 155.113281 86.019531 154.484375 86.183594 Z M 91.34375 123.421875 C 84.214844 122.304688 77.085938 121.117188 69.910156 120.28125 C 69.539062 120.234375 69.445312 120.886719 69.816406 120.953125 C 76.945312 122.445312 84.167969 123.5625 91.367188 124.75 C 98.566406 125.9375 105.765625 127.195312 112.988281 128.246094 C 113.804688 128.363281 114.179688 127.128906 113.316406 126.964844 C 106.023438 125.660156 98.660156 124.566406 91.34375 123.421875 Z M 76.246094 143.082031 C 70.910156 141.425781 65.601562 139.75 60.289062 138.050781 C 59.589844 137.816406 59.308594 138.933594 60.007812 139.144531 C 65.25 140.820312 70.492188 142.476562 75.734375 144.105469 C 78.25 144.875 80.765625 145.644531 83.308594 146.386719 C 86.382812 147.273438 89.527344 148.507812 92.671875 148.996094 C 93.046875 149.066406 93.347656 148.53125 92.929688 148.34375 C 90.15625 147.109375 87.035156 146.433594 84.121094 145.527344 C 81.511719 144.710938 78.878906 143.894531 76.246094 143.082031 Z M 60.3125 133.484375 C 59.683594 133.300781 59.425781 134.277344 60.054688 134.488281 C 70.726562 137.839844 81.417969 141.101562 92.113281 144.339844 C 92.601562 144.476562 92.789062 143.734375 92.324219 143.570312 C 81.652344 140.144531 71.003906 136.769531 60.3125 133.484375 Z M 112.804688 121.839844 C 97.914062 119.300781 83.003906 116.902344 68.117188 114.386719 C 67.558594 114.292969 67.582031 114.992188 68.140625 115.109375 C 68.140625 115.109375 97.707031 120.441406 112.523438 123.167969 C 113.6875 123.378906 113.96875 122.050781 112.804688 121.839844 Z M 154.4375 79.964844 C 143.183594 81.664062 132 83.738281 120.839844 85.949219 C 120.375 86.042969 120.585938 86.742188 121.050781 86.648438 C 132.257812 84.644531 143.488281 82.78125 154.742188 80.988281 C 155.417969 80.894531 155.113281 79.871094 154.4375 79.964844 Z M 167.953125 109.730469 C 167.882812 109.84375 167.789062 109.890625 167.671875 109.914062 C 167.554688 109.984375 167.441406 110.03125 167.300781 110.03125 C 166.042969 110.195312 164.785156 110.359375 163.546875 110.519531 C 165.503906 114.667969 166.179688 120.535156 163.175781 124.308594 C 163.128906 124.355469 163.082031 124.402344 163.035156 124.449219 C 162.941406 124.542969 162.804688 124.613281 162.640625 124.636719 C 161.265625 124.9375 159.890625 125.242188 158.539062 125.542969 C 160.871094 129.804688 160.707031 134.859375 158.492188 139.144531 C 158.421875 139.308594 158.28125 139.378906 158.167969 139.425781 C 158.074219 139.472656 157.980469 139.515625 157.863281 139.539062 C 136.589844 144.804688 115.414062 150.464844 94.046875 155.378906 C 93.816406 155.496094 93.535156 155.519531 93.230469 155.425781 C 80.394531 151.746094 67.789062 147.34375 55.046875 143.453125 C 54.253906 143.21875 54.347656 142.171875 54.929688 141.917969 C 58.050781 137.675781 57.910156 131.925781 54.441406 127.894531 C 53.949219 127.3125 54.253906 126.589844 54.742188 126.289062 C 54.8125 126.21875 54.90625 126.171875 55 126.148438 C 58.144531 125.378906 61.21875 124.308594 64.363281 123.585938 C 65.34375 123.378906 65.761719 124.796875 64.785156 125.078125 C 62.335938 125.800781 59.84375 126.3125 57.351562 126.847656 C 63.199219 128.570312 69.046875 130.269531 74.871094 132.042969 C 78.109375 133.019531 81.328125 133.972656 84.566406 134.953125 C 86.148438 135.441406 87.757812 135.929688 89.339844 136.417969 C 90.460938 136.769531 91.648438 137.003906 92.71875 137.492188 C 98.359375 136.351562 103.996094 135.183594 109.65625 134.160156 C 103.902344 132.925781 98.125 131.714844 92.371094 130.527344 C 88.035156 129.617188 83.703125 128.6875 79.371094 127.6875 C 75.082031 126.683594 70.886719 125.308594 66.625 124.378906 C 66.601562 124.378906 66.578125 124.355469 66.554688 124.355469 C 66.253906 124.308594 65.972656 124.074219 65.832031 123.679688 C 65.34375 122.121094 65.390625 120.347656 65.273438 118.71875 L 64.878906 113.292969 C 64.808594 112.476562 66.207031 112.269531 66.320312 113.082031 C 66.601562 114.875 66.882812 116.667969 67.160156 118.441406 C 67.417969 120.046875 67.882812 121.769531 67.765625 123.402344 C 67.765625 123.445312 67.742188 123.492188 67.742188 123.539062 C 71.867188 124.402344 76.128906 124.867188 80.277344 125.636719 C 84.519531 126.429688 88.78125 127.21875 93.023438 128.011719 C 101.714844 129.664062 110.425781 131.132812 119.140625 132.601562 C 119.210938 132.625 119.304688 132.625 119.375 132.648438 C 121.261719 128.875 121.144531 124.472656 119.210938 120.722656 C 119.070312 120.558594 118.929688 120.394531 118.792969 120.257812 C 118.769531 120.234375 118.769531 120.234375 118.746094 120.210938 C 116.835938 120.09375 114.878906 119.675781 112.988281 119.417969 C 111.636719 119.230469 110.265625 119.023438 108.914062 118.8125 C 108.890625 118.8125 108.867188 118.8125 108.820312 118.8125 C 91.460938 115.949219 74.128906 112.964844 56.746094 110.148438 C 55.746094 109.984375 56.164062 108.519531 57.140625 108.65625 C 57.328125 108.679688 57.515625 108.703125 57.703125 108.726562 C 57.46875 104.769531 57.328125 100.832031 57.1875 96.875 C 56.839844 96.828125 56.511719 96.757812 56.164062 96.710938 C 56.023438 96.6875 55.90625 96.640625 55.835938 96.546875 C 55.347656 96.265625 55.253906 95.359375 55.976562 95.148438 C 59.613281 94.078125 63.269531 92.960938 66.996094 92.285156 C 65.644531 90.445312 65.039062 87.859375 64.925781 85.742188 C 64.738281 82.875 65.460938 80.082031 66.90625 77.636719 C 66.929688 77.425781 67.066406 77.238281 67.347656 77.167969 C 73.519531 75.703125 79.742188 73.957031 86.007812 72.882812 C 89.855469 71.976562 94.46875 71.113281 96.984375 70.554688 C 99.640625 69.972656 101.992188 69.625 104.71875 69.554688 C 110.589844 69.414062 116.554688 70.019531 122.402344 70.277344 C 134.867188 70.859375 146.46875 71.648438 159.84375 73.1875 C 160.378906 73.257812 160.542969 73.746094 160.449219 74.140625 C 160.496094 74.585938 160.238281 75.027344 159.703125 75.003906 C 159.378906 75.050781 159.050781 75.121094 158.726562 75.167969 C 158.191406 77.707031 157.910156 80.265625 158.050781 82.851562 C 158.167969 85.15625 158.703125 87.347656 159.214844 89.582031 C 159.585938 89.535156 159.960938 89.464844 160.332031 89.398438 C 161.289062 89.257812 161.753906 90.699219 160.753906 90.886719 C 157.28125 91.515625 153.785156 92.167969 150.316406 92.84375 C 156.140625 93.148438 161.847656 93.777344 167.601562 94.941406 C 167.742188 94.964844 167.835938 95.011719 167.929688 95.078125 C 168.253906 95.195312 168.441406 95.523438 168.464844 95.847656 C 170.886719 100.226562 170.65625 105.492188 167.953125 109.730469 Z M 157.515625 75.375 C 143.953125 77.589844 130.394531 79.800781 116.859375 82.199219 C 116.859375 82.222656 116.835938 82.269531 116.835938 82.292969 C 115.644531 84.996094 115.25 87.953125 115.644531 90.886719 C 115.832031 92.191406 116.183594 93.449219 116.625 94.683594 C 116.972656 95.617188 117.488281 96.453125 117.90625 97.363281 C 131.304688 94.613281 144.652344 91.890625 158.167969 89.769531 C 156.417969 85.226562 156.558594 80.082031 157.515625 75.375 Z M 71.472656 77.636719 C 86.125 78.730469 100.78125 79.800781 115.4375 81.128906 C 115.484375 81.105469 115.53125 81.082031 115.597656 81.082031 C 128.15625 78.402344 140.855469 76.332031 153.554688 74.351562 C 153.878906 74.304688 154.183594 74.28125 154.507812 74.234375 C 144.164062 73.234375 133.820312 72.464844 123.429688 71.953125 C 117.464844 71.648438 111.5 71.230469 105.511719 70.949219 C 104.625 70.90625 103.761719 70.90625 102.925781 70.949219 C 99.21875 71.71875 95.515625 72.511719 91.8125 73.257812 C 89.15625 73.933594 86.242188 74.652344 84.308594 75.050781 C 80.023438 76.003906 75.734375 76.773438 71.472656 77.636719 Z M 115.390625 82.828125 C 109.308594 82.292969 103.226562 81.757812 97.148438 81.199219 C 96.261719 86.160156 96.515625 90.910156 98.335938 95.617188 C 103.996094 96.199219 109.65625 96.734375 115.34375 97.175781 C 114.316406 95.21875 113.945312 92.703125 113.851562 90.722656 C 113.734375 88 114.269531 85.296875 115.390625 82.828125 Z M 95.421875 81.058594 C 91.230469 80.6875 87.035156 80.289062 82.839844 79.894531 C 81.605469 84.644531 82.027344 89.628906 84.144531 94.078125 C 88.363281 94.566406 92.578125 95.054688 96.796875 95.5 C 94.839844 91.003906 94.1875 85.808594 95.421875 81.058594 Z M 68.816406 92.191406 C 73.242188 92.75 77.667969 93.285156 82.117188 93.820312 C 80.136719 89.328125 79.71875 84.507812 80.976562 79.707031 C 76.550781 79.289062 72.125 78.847656 67.695312 78.402344 C 67.601562 78.425781 67.488281 78.425781 67.417969 78.402344 C 66.367188 80.617188 65.925781 82.992188 66.183594 85.4375 C 66.460938 88.070312 67.71875 89.957031 68.816406 92.191406 Z M 109.214844 104.558594 C 92.300781 102.113281 75.339844 99.808594 58.46875 97.058594 C 58.632812 100.996094 58.820312 104.929688 58.890625 108.867188 C 75.546875 111.195312 92.160156 113.617188 108.773438 116.25 C 108.796875 116.15625 108.820312 116.085938 108.867188 115.996094 C 110.542969 112.382812 110.730469 108.285156 109.214844 104.558594 Z M 110.378906 102.484375 C 127.503906 99.667969 144.722656 97.59375 161.964844 95.660156 C 156.769531 94.824219 151.550781 93.984375 146.285156 93.660156 C 146.261719 93.660156 146.261719 93.660156 146.238281 93.660156 C 136.777344 95.523438 127.34375 97.480469 117.929688 99.433594 C 117.882812 99.433594 117.835938 99.433594 117.789062 99.457031 C 117.671875 99.503906 117.511719 99.527344 117.347656 99.503906 C 101.015625 98.152344 84.796875 95.917969 68.582031 93.589844 C 68.488281 93.613281 68.394531 93.589844 68.277344 93.566406 C 68.234375 93.589844 68.210938 93.589844 68.164062 93.613281 C 65.296875 94.359375 62.429688 95.03125 59.566406 95.753906 C 76.363281 97.804688 93.140625 99.925781 109.890625 102.300781 C 110.101562 102.324219 110.242188 102.394531 110.378906 102.484375 Z M 148.21875 110.683594 C 150.59375 110.359375 152.949219 110.054688 155.324219 109.753906 C 156.300781 105.957031 156.117188 102.019531 154.390625 98.527344 C 152.015625 98.804688 149.640625 99.085938 147.261719 99.363281 C 148.917969 102.835938 149.546875 107.027344 148.21875 110.683594 Z M 136.265625 112.359375 C 139.691406 111.871094 143.117188 111.382812 146.539062 110.917969 C 147.402344 107.074219 147.660156 103.394531 146.027344 99.667969 C 146.003906 99.621094 145.980469 99.550781 145.980469 99.503906 C 142.578125 99.902344 139.179688 100.320312 135.777344 100.738281 C 137.289062 104.371094 137.710938 108.65625 136.265625 112.359375 Z M 126.128906 113.898438 C 128.972656 113.457031 131.839844 113.011719 134.703125 112.59375 C 135.871094 108.589844 136.171875 104.792969 134.589844 100.878906 C 131.582031 101.226562 128.578125 101.601562 125.59375 101.949219 C 127.410156 105.699219 127.691406 110.03125 126.128906 113.898438 Z M 124.753906 114.132812 C 125.734375 110.125 126.015625 106.027344 124.265625 102.136719 C 124.265625 102.136719 124.265625 102.136719 124.265625 102.113281 C 119.769531 102.648438 115.25 103.160156 110.730469 103.652344 C 112.570312 107.773438 112.664062 112.359375 110.824219 116.507812 C 115.460938 115.667969 120.097656 114.875 124.753906 114.132812 Z M 134.261719 114.621094 C 127.855469 115.550781 121.449219 116.484375 115.015625 117.390625 C 116.390625 117.507812 117.789062 117.601562 119.09375 117.878906 C 124.148438 116.761719 129.207031 115.667969 134.261719 114.621094 Z M 92.371094 139.84375 C 92.277344 139.75 92.207031 139.65625 92.160156 139.539062 C 90.996094 139.332031 89.902344 138.863281 88.78125 138.515625 C 87.199219 138.003906 85.589844 137.515625 84.007812 137.023438 C 80.789062 136.023438 77.574219 135.023438 74.335938 134.019531 C 68.628906 132.25 62.945312 130.433594 57.28125 128.570312 C 59.726562 132.878906 59.449219 138.097656 56.375 142.125 C 68.816406 145.527344 81.117188 149.347656 93.511719 152.910156 C 95.445312 148.601562 96.027344 143.453125 92.371094 139.84375 Z M 116.925781 141.984375 C 116.648438 139.5625 115.878906 137.328125 114.644531 135.277344 C 108.027344 136.886719 101.292969 138.003906 94.628906 139.308594 C 98.078125 143.21875 97.402344 148.855469 95.46875 153.445312 C 102.503906 151.558594 109.542969 149.695312 116.578125 147.855469 C 116.601562 147.132812 116.835938 146.410156 116.925781 145.644531 C 117.066406 144.429688 117.042969 143.195312 116.925781 141.984375 Z M 139.785156 130.15625 C 137.617188 130.738281 135.449219 131.320312 133.285156 131.925781 C 131.117188 132.53125 128.949219 133.136719 126.78125 133.742188 C 124.664062 134.347656 122.519531 134.953125 120.398438 135.605469 C 119.675781 135.8125 118.792969 135.976562 118.070312 135.8125 C 117.488281 135.675781 117.089844 135.582031 116.34375 135.394531 C 117.441406 137.234375 118.300781 139.472656 118.628906 141.589844 C 118.859375 143.082031 119.09375 145.527344 118.582031 147.34375 C 126.222656 145.339844 133.867188 143.359375 141.507812 141.402344 C 142.136719 137.492188 141.71875 133.671875 139.785156 130.15625 Z M 158.027344 132.066406 C 157.980469 130.179688 157.328125 127.476562 155.765625 126.195312 C 150.875 127.335938 145.980469 128.523438 141.113281 129.804688 C 143.023438 133.183594 143.859375 137.1875 143.140625 140.984375 C 147.730469 139.820312 152.320312 138.65625 156.933594 137.515625 C 157.722656 135.769531 158.074219 133.949219 158.027344 132.066406 Z M 162.988281 117.484375 C 162.988281 115.273438 162.476562 113.105469 161.476562 111.125 C 161.429688 111.058594 161.40625 110.964844 161.382812 110.894531 C 154.71875 112.359375 147.914062 113.386719 141.203125 114.738281 C 134.308594 116.132812 127.433594 117.601562 120.5625 119.113281 C 120.5625 119.160156 120.5625 119.183594 120.5625 119.230469 C 122.613281 122.492188 123.171875 126.382812 122.285156 130.015625 C 122.121094 131.25 121.796875 132.4375 121.355469 133.625 C 134.820312 129.640625 148.402344 126.171875 162.058594 122.886719 C 162.476562 121.09375 162.988281 119.371094 162.988281 117.484375 Z M 166.808594 97.082031 C 163.152344 97.480469 159.472656 97.898438 155.8125 98.339844 C 157.585938 102.042969 157.746094 105.675781 156.816406 109.542969 C 160.285156 109.101562 163.78125 108.65625 167.253906 108.238281 C 167.253906 108.238281 167.277344 108.238281 167.277344 108.238281 C 168.722656 104.863281 168.929688 100.226562 166.808594 97.082031 Z M 166.808594 97.082031 " fill-opacity="1" fill-rule="nonzero"/></g></svg>