<svg xmlns="http://www.w3.org/2000/svg" xmlns:xlink="http://www.w3.org/1999/xlink" width="300" zoomAndPan="magnify" viewBox="0 0 224.87999 225" height="300" preserveAspectRatio="xMidYMid meet" version="1.0"><defs><clipPath id="97314425c3"><path d="M 0 0.0585938 L 224.761719 0.0585938 L 224.761719 224.9375 L 0 224.9375 Z M 0 0.0585938 " clip-rule="nonzero"/></clipPath><clipPath id="bd23071531"><path d="M 52.558594 155 L 172.492188 155 L 172.492188 159.566406 L 52.558594 159.566406 Z M 52.558594 155 " clip-rule="nonzero"/></clipPath><clipPath id="1f5f4d0307"><path d="M 52.558594 126 L 99 126 L 99 155 L 52.558594 155 Z M 52.558594 126 " clip-rule="nonzero"/></clipPath><clipPath id="c868085419"><path d="M 127 126 L 172.492188 126 L 172.492188 155 L 127 155 Z M 127 126 " clip-rule="nonzero"/></clipPath><clipPath id="d720f86b99"><path d="M 127 123 L 172.492188 123 L 172.492188 128 L 127 128 Z M 127 123 " clip-rule="nonzero"/></clipPath><clipPath id="fbb5493bc1"><path d="M 52.558594 123 L 99 123 L 99 128 L 52.558594 128 Z M 52.558594 123 " clip-rule="nonzero"/></clipPath><clipPath id="b72f6ab2ac"><path d="M 111 65.117188 L 128 65.117188 L 128 87 L 111 87 Z M 111 65.117188 " clip-rule="nonzero"/></clipPath></defs><g clip-path="url(#97314425c3)"><path fill="#ffffff" d="M 0 0.0585938 L 224.878906 0.0585938 L 224.878906 224.941406 L 0 224.941406 Z M 0 0.0585938 " fill-opacity="1" fill-rule="nonzero"/><path fill="#0a192f" d="M 0 0.0585938 L 224.878906 0.0585938 L 224.878906 224.941406 L 0 224.941406 Z M 0 0.0585938 " fill-opacity="1" fill-rule="nonzero"/></g><g clip-path="url(#bd23071531)"><path fill="#ffffff" d="M 171.148438 159.566406 L 53.671875 159.566406 C 53.070312 159.566406 52.578125 159.078125 52.578125 158.480469 L 52.578125 156.550781 C 52.578125 155.949219 53.070312 155.460938 53.671875 155.460938 L 171.164062 155.460938 C 171.765625 155.460938 172.257812 155.949219 172.257812 156.550781 L 172.257812 158.480469 C 172.242188 159.078125 171.75 159.566406 171.148438 159.566406 Z M 53.945312 158.207031 L 170.875 158.207031 L 170.875 156.835938 L 53.945312 156.835938 Z M 53.945312 158.207031 " fill-opacity="1" fill-rule="nonzero"/></g><path fill="#ffffff" d="M 132.234375 106 L 129.378906 106 C 129.050781 106 128.722656 105.875 128.476562 105.671875 L 128.449219 105.644531 L 112.738281 91.3125 C 112.667969 91.257812 112.574219 91.257812 112.519531 91.3125 L 97.832031 105.5625 C 97.542969 105.835938 97.160156 106 96.765625 106 L 93.007812 106 C 92.367188 106 91.820312 105.617188 91.585938 105.019531 C 91.355469 104.433594 91.519531 103.769531 91.996094 103.347656 L 111.605469 85.816406 C 112.175781 85.300781 113.050781 85.300781 113.640625 85.816406 L 133.261719 103.347656 C 133.738281 103.769531 133.890625 104.421875 133.671875 105.019531 C 133.453125 105.617188 132.878906 106 132.234375 106 Z M 129.367188 104.625 C 129.378906 104.625 129.378906 104.640625 129.394531 104.640625 L 132.25 104.640625 C 132.316406 104.640625 132.371094 104.613281 132.398438 104.542969 C 132.425781 104.476562 132.414062 104.421875 132.359375 104.367188 L 112.722656 86.835938 C 112.667969 86.78125 112.574219 86.78125 112.519531 86.835938 L 92.910156 104.367188 C 92.855469 104.40625 92.84375 104.476562 92.871094 104.542969 C 92.898438 104.613281 92.9375 104.640625 93.019531 104.640625 L 96.777344 104.640625 C 96.820312 104.640625 96.859375 104.625 96.886719 104.597656 L 111.589844 90.347656 C 112.164062 89.789062 113.09375 89.773438 113.679688 90.320312 Z M 129.367188 104.625 " fill-opacity="1" fill-rule="nonzero"/><path fill="#ffffff" d="M 126.933594 155 L 122.699219 155 C 122.109375 155 121.632812 154.523438 121.632812 153.9375 L 121.632812 143.304688 C 121.632812 138.367188 117.589844 134.339844 112.628906 134.339844 C 107.667969 134.339844 103.625 138.367188 103.625 143.304688 L 103.625 153.964844 C 103.625 154.535156 103.160156 154.984375 102.597656 154.984375 L 98.679688 154.984375 C 98.117188 154.984375 97.652344 154.523438 97.652344 153.964844 L 97.652344 105.507812 C 97.652344 105.222656 97.777344 104.9375 97.980469 104.734375 L 111.6875 91.460938 C 112.21875 90.945312 113.066406 90.929688 113.613281 91.449219 L 127.359375 104.40625 C 127.769531 104.800781 128.011719 105.347656 128.011719 105.917969 L 128.011719 153.925781 C 128 154.507812 127.523438 155 126.933594 155 Z M 123 153.636719 L 126.632812 153.636719 L 126.632812 105.917969 C 126.632812 105.714844 126.550781 105.523438 126.402344 105.386719 L 112.65625 92.425781 C 112.640625 92.414062 112.628906 92.414062 112.613281 92.425781 L 99.007812 105.617188 L 99.007812 153.625 L 102.246094 153.625 L 102.246094 143.289062 C 102.246094 137.589844 106.902344 132.96875 112.613281 132.96875 C 118.324219 132.96875 122.984375 137.605469 122.984375 143.289062 L 122.984375 153.636719 Z M 117.535156 123.40625 L 108.09375 123.40625 L 108.09375 114.007812 L 117.535156 114.007812 Z M 109.472656 122.046875 L 116.179688 122.046875 L 116.179688 115.367188 L 109.472656 115.367188 Z M 112.628906 106.554688 C 111.234375 106.554688 109.9375 106.027344 108.953125 105.035156 C 107.941406 104.027344 107.410156 102.695312 107.421875 101.265625 C 107.476562 98.519531 109.757812 96.234375 112.53125 96.179688 C 113.96875 96.152344 115.304688 96.695312 116.316406 97.703125 C 117.328125 98.710938 117.863281 100.042969 117.847656 101.46875 C 117.792969 104.21875 115.511719 106.503906 112.738281 106.554688 C 112.695312 106.554688 112.65625 106.554688 112.628906 106.554688 Z M 112.628906 97.554688 C 112.601562 97.554688 112.574219 97.554688 112.558594 97.554688 C 110.523438 97.59375 108.828125 99.265625 108.789062 101.308594 C 108.773438 102.355469 109.171875 103.347656 109.910156 104.082031 C 110.648438 104.816406 111.644531 105.210938 112.695312 105.195312 C 114.734375 105.15625 116.425781 103.484375 116.46875 101.441406 C 116.480469 100.394531 116.085938 99.402344 115.347656 98.667969 C 114.609375 97.949219 113.652344 97.554688 112.628906 97.554688 Z M 112.628906 97.554688 " fill-opacity="1" fill-rule="nonzero"/><path fill="#ffffff" d="M 96.941406 123.570312 L 54.476562 123.570312 C 54.027344 123.570312 53.628906 123.296875 53.464844 122.890625 C 53.300781 122.480469 53.398438 122.019531 53.726562 121.707031 L 65.734375 110.203125 C 65.941406 110.011719 66.199219 109.902344 66.488281 109.902344 L 96.957031 109.902344 C 97.558594 109.902344 98.050781 110.390625 98.050781 110.988281 L 98.050781 122.496094 C 98.035156 123.09375 97.542969 123.570312 96.941406 123.570312 Z M 55.171875 122.210938 L 96.667969 122.210938 L 96.667969 111.261719 L 66.597656 111.261719 Z M 55.171875 122.210938 " fill-opacity="1" fill-rule="nonzero"/><g clip-path="url(#1f5f4d0307)"><path fill="#ffffff" d="M 96.941406 154.945312 L 53.875 154.945312 C 53.273438 154.945312 52.78125 154.453125 52.78125 153.855469 L 52.78125 128.015625 C 52.78125 127.417969 53.273438 126.929688 53.875 126.929688 L 96.941406 126.929688 C 97.542969 126.929688 98.035156 127.417969 98.035156 128.015625 L 98.035156 153.855469 C 98.035156 154.46875 97.542969 154.945312 96.941406 154.945312 Z M 54.164062 153.585938 L 96.667969 153.585938 L 96.667969 128.316406 L 54.164062 128.316406 Z M 79.933594 149.476562 L 69.328125 149.476562 C 68.726562 149.476562 68.234375 148.988281 68.234375 148.390625 L 68.234375 141.152344 C 68.234375 140.554688 68.726562 140.066406 69.328125 140.066406 L 79.933594 140.066406 C 80.53125 140.066406 81.023438 140.554688 81.023438 141.152344 L 81.023438 148.390625 C 81.011719 148.988281 80.53125 149.476562 79.933594 149.476562 Z M 69.601562 148.117188 L 79.644531 148.117188 L 79.644531 141.441406 L 69.601562 141.441406 Z M 79.933594 139.332031 L 69.328125 139.332031 C 68.726562 139.332031 68.234375 138.84375 68.234375 138.242188 L 68.234375 131.007812 C 68.234375 130.410156 68.726562 129.921875 69.328125 129.921875 L 79.933594 129.921875 C 80.53125 129.921875 81.023438 130.410156 81.023438 131.007812 L 81.023438 138.242188 C 81.011719 138.84375 80.53125 139.332031 79.933594 139.332031 Z M 69.601562 137.972656 L 79.644531 137.972656 L 79.644531 131.292969 L 69.601562 131.292969 Z M 69.601562 137.972656 " fill-opacity="1" fill-rule="nonzero"/></g><g clip-path="url(#c868085419)"><path fill="#ffffff" d="M 171.367188 154.945312 L 128.695312 154.945312 C 128.09375 154.945312 127.605469 154.453125 127.605469 153.855469 L 127.605469 128.015625 C 127.605469 127.417969 128.09375 126.929688 128.695312 126.929688 L 171.382812 126.929688 C 171.984375 126.929688 172.476562 127.417969 172.476562 128.015625 L 172.476562 153.855469 C 172.460938 154.46875 171.96875 154.945312 171.367188 154.945312 Z M 128.96875 153.585938 L 171.09375 153.585938 L 171.09375 128.316406 L 128.96875 128.316406 Z M 155.175781 148.417969 L 144.804688 148.417969 C 144.203125 148.417969 143.714844 147.925781 143.714844 147.328125 L 143.714844 140.09375 C 143.714844 139.496094 144.203125 139.003906 144.804688 139.003906 L 155.175781 139.003906 C 155.777344 139.003906 156.269531 139.496094 156.269531 140.09375 L 156.269531 147.328125 C 156.269531 147.941406 155.777344 148.417969 155.175781 148.417969 Z M 145.09375 147.054688 L 154.902344 147.054688 L 154.902344 140.378906 L 145.09375 140.378906 Z M 155.175781 138.269531 L 144.804688 138.269531 C 144.203125 138.269531 143.714844 137.78125 143.714844 137.183594 L 143.714844 129.949219 C 143.714844 129.347656 144.203125 128.859375 144.804688 128.859375 L 155.175781 128.859375 C 155.777344 128.859375 156.269531 129.347656 156.269531 129.949219 L 156.269531 137.183594 C 156.269531 137.796875 155.777344 138.269531 155.175781 138.269531 Z M 145.09375 136.910156 L 154.902344 136.910156 L 154.902344 130.234375 L 145.09375 130.234375 Z M 145.09375 136.910156 " fill-opacity="1" fill-rule="nonzero"/></g><path fill="#ffffff" d="M 170.765625 123.570312 L 128.683594 123.570312 C 128.082031 123.570312 127.589844 123.082031 127.589844 122.480469 L 127.589844 110.976562 C 127.589844 110.378906 128.082031 109.886719 128.683594 109.886719 L 158.757812 109.886719 C 159.042969 109.886719 159.304688 109.996094 159.507812 110.1875 L 171.519531 121.691406 C 171.832031 122.003906 171.941406 122.46875 171.777344 122.875 C 171.613281 123.3125 171.21875 123.570312 170.765625 123.570312 Z M 128.96875 122.210938 L 170.082031 122.210938 L 158.660156 111.261719 L 128.96875 111.261719 Z M 128.96875 122.210938 " fill-opacity="1" fill-rule="nonzero"/><g clip-path="url(#d720f86b99)"><path fill="#ffffff" d="M 171.519531 127.132812 L 128.53125 127.132812 C 128.011719 127.132812 127.605469 126.710938 127.605469 126.207031 L 127.605469 124.15625 C 127.605469 123.636719 128.027344 123.230469 128.53125 123.230469 L 171.519531 123.230469 C 172.039062 123.230469 172.449219 123.652344 172.449219 124.15625 L 172.449219 126.222656 C 172.460938 126.726562 172.039062 127.132812 171.519531 127.132812 Z M 128.96875 125.773438 L 171.09375 125.773438 L 171.09375 124.574219 L 128.96875 124.574219 Z M 128.96875 125.773438 " fill-opacity="1" fill-rule="nonzero"/></g><g clip-path="url(#fbb5493bc1)"><path fill="#ffffff" d="M 97.105469 127.132812 L 53.726562 127.132812 C 53.207031 127.132812 52.796875 126.710938 52.796875 126.207031 L 52.796875 124.15625 C 52.796875 123.636719 53.21875 123.230469 53.726562 123.230469 L 97.105469 123.230469 C 97.625 123.230469 98.035156 123.652344 98.035156 124.15625 L 98.035156 126.222656 C 98.035156 126.726562 97.613281 127.132812 97.105469 127.132812 Z M 54.164062 125.773438 L 96.667969 125.773438 L 96.667969 124.574219 L 54.164062 124.574219 Z M 54.164062 125.773438 " fill-opacity="1" fill-rule="nonzero"/></g><g clip-path="url(#b72f6ab2ac)"><path fill="#ffffff" d="M 112.613281 86.769531 C 112.109375 86.769531 111.6875 86.359375 111.6875 85.84375 L 111.6875 66.695312 C 111.6875 66.191406 112.09375 65.769531 112.613281 65.769531 C 112.832031 65.769531 113.039062 65.851562 113.203125 65.976562 C 114.28125 65.609375 115.785156 65.160156 116.535156 65.132812 C 117.316406 65.117188 118.3125 65.402344 119.378906 65.714844 C 120.238281 65.976562 121.128906 66.234375 121.660156 66.234375 C 122.355469 66.234375 124.132812 65.878906 126.429688 65.28125 C 126.757812 65.199219 127.097656 65.269531 127.371094 65.472656 C 127.644531 65.675781 127.796875 65.988281 127.796875 66.328125 L 127.796875 72.558594 C 127.796875 73.0625 127.453125 73.496094 126.960938 73.605469 C 125.636719 73.917969 123.257812 74.421875 122.21875 74.367188 C 121.457031 74.324219 120.5 73.972656 119.488281 73.589844 C 118.570312 73.25 117.535156 72.855469 116.917969 72.855469 C 116.90625 72.855469 116.890625 72.855469 116.878906 72.855469 C 116.386719 72.871094 115.128906 73.277344 113.558594 73.929688 L 113.558594 85.804688 C 113.542969 86.359375 113.121094 86.769531 112.613281 86.769531 Z M 116.90625 71.539062 C 117.765625 71.539062 118.832031 71.933594 119.953125 72.351562 C 120.828125 72.679688 121.726562 73.007812 122.273438 73.046875 C 122.984375 73.085938 124.84375 72.734375 126.414062 72.367188 L 126.414062 66.722656 C 124.953125 67.105469 122.710938 67.632812 121.660156 67.632812 C 121.660156 67.632812 121.644531 67.632812 121.644531 67.632812 C 120.910156 67.632812 119.980469 67.347656 118.980469 67.050781 C 118.066406 66.777344 117.125 66.503906 116.5625 66.519531 C 116.085938 66.53125 114.746094 66.898438 113.160156 67.445312 L 113.039062 67.511719 L 113.039062 72.71875 C 114.351562 72.175781 115.960938 71.578125 116.808594 71.550781 C 116.851562 71.539062 116.878906 71.539062 116.90625 71.539062 Z M 126.785156 66.613281 Z M 126.785156 66.613281 " fill-opacity="1" fill-rule="nonzero"/></g><path fill="#ffffff" d="M 108.558594 102.054688 L 108.09375 102.054688 C 107.710938 102.054688 107.410156 101.757812 107.410156 101.375 C 107.410156 100.996094 107.710938 100.695312 108.09375 100.695312 L 108.558594 100.695312 C 108.9375 100.695312 109.238281 100.996094 109.238281 101.375 C 109.238281 101.757812 108.9375 102.054688 108.558594 102.054688 Z M 108.558594 102.054688 " fill-opacity="1" fill-rule="nonzero"/><path fill="#ffffff" d="M 117.152344 102.054688 L 116.6875 102.054688 C 116.304688 102.054688 116.003906 101.757812 116.003906 101.375 C 116.003906 100.996094 116.304688 100.695312 116.6875 100.695312 L 117.152344 100.695312 C 117.535156 100.695312 117.835938 100.996094 117.835938 101.375 C 117.835938 101.757812 117.519531 102.054688 117.152344 102.054688 Z M 117.152344 102.054688 " fill-opacity="1" fill-rule="nonzero"/><path fill="#ffffff" d="M 112.628906 106.554688 C 112.246094 106.554688 111.945312 106.257812 111.945312 105.875 L 111.945312 105.414062 C 111.945312 105.035156 112.246094 104.734375 112.628906 104.734375 C 113.011719 104.734375 113.3125 105.035156 113.3125 105.414062 L 113.3125 105.875 C 113.3125 106.257812 113.011719 106.554688 112.628906 106.554688 Z M 112.628906 106.554688 " fill-opacity="1" fill-rule="nonzero"/><path fill="#ffffff" d="M 112.613281 98.015625 C 112.230469 98.015625 111.933594 97.714844 111.933594 97.335938 L 111.933594 96.875 C 111.933594 96.492188 112.230469 96.195312 112.613281 96.195312 C 112.996094 96.195312 113.296875 96.492188 113.296875 96.875 L 113.296875 97.335938 C 113.296875 97.703125 112.996094 98.015625 112.613281 98.015625 Z M 112.613281 98.015625 " fill-opacity="1" fill-rule="nonzero"/><path fill="#ffffff" d="M 112.941406 98.941406 L 113.269531 98.941406 L 112.695312 97.949219 L 112.109375 98.941406 L 112.449219 98.941406 L 112.4375 101.46875 L 110.730469 101.46875 L 110.730469 101.144531 L 109.71875 101.714844 L 110.730469 102.285156 L 110.730469 101.960938 L 112.929688 101.960938 Z M 112.941406 98.941406 " fill-opacity="1" fill-rule="nonzero"/></svg>