<svg xmlns="http://www.w3.org/2000/svg" xmlns:xlink="http://www.w3.org/1999/xlink" width="300" zoomAndPan="magnify" viewBox="0 0 224.87999 225" height="300" preserveAspectRatio="xMidYMid meet" version="1.0"><defs><clipPath id="8306c6b138"><path d="M 0 0.0585938 L 224.761719 0.0585938 L 224.761719 224.9375 L 0 224.9375 Z M 0 0.0585938 " clip-rule="nonzero"/></clipPath><clipPath id="238c448c79"><path d="M 53 71.171875 L 172.375 71.171875 L 172.375 153.628906 L 53 153.628906 Z M 53 71.171875 " clip-rule="nonzero"/></clipPath><clipPath id="d0a89b02af"><path d="M 53 71.171875 L 172.375 71.171875 L 172.375 153.628906 L 53 153.628906 Z M 53 71.171875 " clip-rule="nonzero"/></clipPath></defs><g clip-path="url(#8306c6b138)"><path fill="#ffffff" d="M 0 0.0585938 L 224.878906 0.0585938 L 224.878906 224.941406 L 0 224.941406 Z M 0 0.0585938 " fill-opacity="1" fill-rule="nonzero"/><path fill="#0a192f" d="M 0 0.0585938 L 224.878906 0.0585938 L 224.878906 224.941406 L 0 224.941406 Z M 0 0.0585938 " fill-opacity="1" fill-rule="nonzero"/></g><g clip-path="url(#238c448c79)"><path fill="#f8479d" d="M 172.066406 128.585938 C 171.453125 122.636719 169.109375 115.773438 167.046875 109.722656 L 166.945312 109.4375 C 161.71875 94.179688 160.332031 90.554688 158.375 85.949219 C 156.84375 82.324219 155.617188 80.957031 154.3125 79.835938 C 154.210938 79.550781 153.964844 79.164062 153.476562 78.511719 C 152.679688 77.496094 152.046875 76.722656 150.679688 75.660156 C 150.128906 75.234375 148.78125 74.257812 146.800781 73.359375 C 144.90625 72.503906 143.355469 72.15625 142.046875 71.871094 C 141.109375 71.667969 139.699219 71.363281 137.824219 71.261719 C 136.476562 71.199219 135.332031 71.242188 134.496094 71.324219 C 134.046875 71.484375 132.742188 72.015625 131.863281 73.339844 C 129.558594 73.21875 126.964844 73.09375 124.027344 73.011719 C 113.925781 72.707031 111.375 72.789062 108.679688 72.851562 C 107.070312 72.890625 105.394531 72.933594 102.089844 72.910156 C 101.519531 72.910156 100.886719 72.890625 100.230469 72.890625 C 98.414062 72.851562 96.292969 72.808594 93.925781 72.910156 C 93.089844 71.894531 92.027344 71.464844 91.621094 71.324219 C 90.761719 71.242188 89.621094 71.179688 88.292969 71.261719 C 86.417969 71.363281 85.027344 71.667969 84.070312 71.871094 C 82.761719 72.15625 81.210938 72.503906 79.3125 73.359375 C 77.335938 74.257812 75.988281 75.234375 75.4375 75.660156 C 74.070312 76.722656 73.457031 77.496094 72.640625 78.511719 C 72.128906 79.144531 71.90625 79.53125 71.804688 79.816406 C 71.355469 80.203125 70.945312 80.613281 70.621094 81 C 68.867188 83.078125 68.234375 85.175781 67.925781 86.171875 L 67.90625 86.214844 C 67.050781 89.023438 65.640625 93.019531 64.027344 97.640625 C 60.476562 107.808594 56.027344 120.417969 54.683594 128.464844 C 52.4375 142.011719 55.765625 146.59375 56.867188 148.101562 C 57.867188 149.46875 61.234375 153.621094 65.292969 153.621094 C 65.601562 153.621094 65.925781 153.601562 66.234375 153.542969 C 69.152344 153.074219 70.109375 151.890625 71.84375 149.730469 C 72.375 149.058594 72.988281 148.304688 73.785156 147.429688 C 75.722656 145.230469 76.886719 143.660156 77.988281 142.132812 C 78.96875 140.789062 79.886719 139.527344 81.292969 137.917969 C 83.292969 135.59375 85.539062 133.433594 87.925781 131.5 C 88.679688 130.886719 95.601562 129.972656 133.332031 130.5625 C 134.457031 130.582031 135.273438 130.601562 135.742188 130.601562 C 136.617188 130.601562 138.660156 131.519531 140.882812 133.25 C 141.90625 134.046875 142.273438 134.535156 143.046875 135.59375 C 143.699219 136.492188 144.578125 137.691406 146.3125 139.75 C 147.800781 141.523438 149.457031 143.660156 150.78125 145.394531 C 151.84375 146.796875 152.699219 147.898438 153.167969 148.429688 C 155.433594 150.953125 158.046875 153.460938 160.273438 153.460938 C 160.433594 153.460938 160.578125 153.4375 160.742188 153.417969 C 165.351562 152.625 167.597656 150.058594 167.863281 149.753906 C 170.824219 146.878906 171.558594 143.457031 171.964844 141.625 C 172.375 139.789062 172.375 138.222656 172.375 135.105469 C 172.375 135.023438 172.375 131.640625 172.066406 128.585938 Z M 170.964844 141.378906 C 170.578125 143.109375 169.882812 146.351562 167.128906 149.019531 L 167.085938 149.058594 C 167.066406 149.078125 165.007812 151.625 160.558594 152.378906 C 158.476562 152.746094 155.167969 149.078125 153.925781 147.695312 C 153.476562 147.207031 152.597656 146.066406 151.597656 144.742188 C 150.273438 143.007812 148.617188 140.851562 147.109375 139.058594 C 145.394531 137.039062 144.515625 135.839844 143.882812 134.960938 C 143.066406 133.84375 142.660156 133.292969 141.515625 132.417969 C 139.3125 130.726562 137.007812 129.5625 135.742188 129.5625 C 135.273438 129.5625 134.433594 129.542969 133.332031 129.523438 C 128.171875 129.441406 117.394531 129.277344 107.496094 129.339844 C 88.824219 129.460938 87.703125 130.339844 87.273438 130.683594 C 84.824219 132.679688 82.558594 134.882812 80.519531 137.222656 C 79.089844 138.875 78.152344 140.15625 77.171875 141.523438 C 76.070312 143.03125 74.945312 144.578125 73.027344 146.757812 C 72.234375 147.652344 71.621094 148.429688 71.070312 149.101562 C 69.335938 151.238281 68.621094 152.136719 66.089844 152.542969 C 64.355469 152.828125 62.476562 152.15625 60.539062 150.546875 C 59.539062 149.710938 58.539062 148.632812 57.703125 147.511719 C 56.660156 146.085938 53.519531 141.765625 55.703125 128.648438 C 57.027344 120.683594 61.457031 108.113281 65.007812 98.027344 C 66.640625 93.382812 68.050781 89.390625 68.90625 86.539062 L 68.925781 86.5 C 69.210938 85.5625 69.804688 83.605469 71.417969 81.671875 C 71.621094 81.425781 71.84375 81.183594 72.109375 80.9375 C 73.234375 79.859375 74.90625 78.777344 76.96875 77.757812 C 80.621094 75.945312 83.804688 75.191406 85.007812 74.949219 C 88.519531 74.257812 91.742188 73.992188 94.601562 73.910156 C 96.703125 73.847656 98.578125 73.890625 100.210938 73.910156 C 100.886719 73.929688 101.519531 73.929688 102.089844 73.929688 C 105.4375 73.949219 107.109375 73.910156 108.722656 73.867188 C 111.414062 73.789062 113.945312 73.726562 124.007812 74.03125 C 126.722656 74.113281 129.148438 74.214844 131.3125 74.335938 C 146.171875 75.132812 149.128906 76.742188 151.863281 79.125 C 152.230469 79.449219 152.578125 79.714844 152.90625 80 C 153.292969 80.304688 153.660156 80.613281 154.027344 80.957031 C 155.128906 81.976562 156.148438 83.300781 157.433594 86.355469 C 159.375 90.941406 160.761719 94.546875 165.964844 109.761719 L 166.066406 110.046875 C 168.128906 116.039062 170.457031 122.839844 171.046875 128.6875 C 171.351562 131.683594 171.351562 135.042969 171.351562 135.0625 C 171.351562 138.121094 171.351562 139.648438 170.964844 141.378906 Z M 170.964844 141.378906 " fill-opacity="1" fill-rule="nonzero"/></g><path fill="#f8479d" d="M 107.519531 93.566406 C 107.519531 95.15625 106.230469 96.441406 104.640625 96.441406 C 103.046875 96.441406 101.761719 95.15625 101.761719 93.566406 C 101.761719 91.980469 103.046875 90.695312 104.640625 90.695312 C 106.230469 90.695312 107.519531 91.980469 107.519531 93.566406 Z M 82.84375 86.152344 C 78.640625 86.152344 75.210938 89.554688 75.210938 93.773438 C 75.210938 97.988281 78.621094 101.390625 82.84375 101.390625 C 87.050781 101.390625 90.476562 97.988281 90.476562 93.773438 C 90.476562 89.554688 87.050781 86.152344 82.84375 86.152344 Z M 114.519531 97.90625 L 111.90625 97.90625 C 110.742188 97.90625 109.804688 98.863281 109.804688 100.003906 C 109.804688 101.144531 110.761719 102.101562 111.90625 102.101562 L 114.519531 102.101562 C 115.679688 102.101562 116.621094 101.144531 116.621094 100.003906 C 116.621094 98.863281 115.660156 97.90625 114.519531 97.90625 Z M 141.882812 90.164062 C 144.109375 91.144531 146.699219 90.125 147.660156 87.90625 C 148.640625 85.683594 147.617188 83.097656 145.394531 82.140625 C 143.171875 81.160156 140.578125 82.179688 139.617188 84.402344 C 138.640625 86.621094 139.660156 89.1875 141.882812 90.164062 Z M 145.457031 97.765625 C 143.230469 96.785156 140.640625 97.804688 139.679688 100.027344 C 138.699219 102.246094 139.722656 104.832031 141.945312 105.789062 C 144.171875 106.769531 146.761719 105.75 147.722656 103.53125 C 148.679688 101.308594 147.679688 98.722656 145.457031 97.765625 Z M 124.414062 94.707031 C 125.046875 93.261719 124.394531 91.570312 122.925781 90.941406 C 121.457031 90.308594 119.78125 90.960938 119.148438 92.425781 C 118.515625 93.894531 119.171875 95.5625 120.640625 96.195312 C 122.109375 96.828125 123.78125 96.15625 124.414062 94.707031 Z M 137.191406 89.675781 C 134.964844 88.699219 132.375 89.71875 131.414062 91.9375 C 130.457031 94.160156 131.457031 96.746094 133.679688 97.703125 C 135.90625 98.679688 138.496094 97.664062 139.457031 95.441406 C 140.414062 93.222656 139.414062 90.65625 137.191406 89.675781 Z M 153.351562 89.960938 C 151.128906 88.984375 148.539062 90.003906 147.578125 92.222656 C 146.597656 94.445312 147.617188 97.03125 149.84375 97.988281 C 152.066406 98.964844 154.660156 97.949219 155.617188 95.726562 C 156.597656 93.507812 155.578125 90.917969 153.351562 89.960938 Z M 128.742188 104.058594 C 124.640625 104.058594 121.3125 107.378906 121.3125 111.472656 C 121.3125 115.570312 124.640625 118.890625 128.742188 118.890625 C 132.84375 118.890625 136.171875 115.570312 136.171875 111.472656 C 136.171875 107.378906 132.84375 104.058594 128.742188 104.058594 Z M 104.394531 109.703125 L 100.90625 109.703125 L 100.90625 106.464844 C 100.90625 105.261719 99.90625 104.261719 98.703125 104.261719 L 96.988281 104.261719 C 95.785156 104.261719 94.785156 105.261719 94.785156 106.464844 L 94.785156 109.703125 L 91.234375 109.703125 C 90.027344 109.703125 89.027344 110.699219 89.027344 111.902344 L 89.027344 113.574219 C 89.027344 114.773438 90.027344 115.773438 91.234375 115.773438 L 94.785156 115.773438 L 94.785156 119.316406 C 94.785156 120.519531 95.785156 121.515625 96.988281 121.515625 L 98.703125 121.515625 C 99.90625 121.515625 100.90625 120.519531 100.90625 119.316406 L 100.90625 115.773438 L 104.394531 115.773438 C 105.597656 115.773438 106.597656 114.773438 106.597656 113.574219 L 106.597656 111.902344 C 106.597656 110.699219 105.621094 109.703125 104.394531 109.703125 Z M 104.394531 109.703125 " fill-opacity="1" fill-rule="nonzero"/><g clip-path="url(#d0a89b02af)"><path fill="#f8479d" d="M 172.066406 128.585938 C 171.453125 122.636719 169.109375 115.773438 167.046875 109.722656 L 166.945312 109.4375 C 161.71875 94.179688 160.332031 90.554688 158.375 85.949219 C 156.84375 82.324219 155.617188 80.957031 154.3125 79.835938 C 154.210938 79.550781 153.964844 79.164062 153.476562 78.511719 C 152.679688 77.496094 152.046875 76.722656 150.679688 75.660156 C 150.128906 75.234375 148.78125 74.257812 146.800781 73.359375 C 144.90625 72.503906 143.355469 72.15625 142.046875 71.871094 C 141.109375 71.667969 139.699219 71.363281 137.824219 71.261719 C 136.476562 71.199219 135.332031 71.242188 134.496094 71.324219 C 134.046875 71.484375 132.742188 72.015625 131.863281 73.339844 C 129.558594 73.21875 126.964844 73.09375 124.027344 73.011719 C 113.925781 72.707031 111.375 72.789062 108.679688 72.851562 C 107.070312 72.890625 105.394531 72.933594 102.089844 72.910156 C 101.519531 72.910156 100.886719 72.890625 100.230469 72.890625 C 98.414062 72.851562 96.292969 72.808594 93.925781 72.910156 C 93.089844 71.894531 92.027344 71.464844 91.621094 71.324219 C 90.761719 71.242188 89.621094 71.179688 88.292969 71.261719 C 86.417969 71.363281 85.027344 71.667969 84.070312 71.871094 C 82.761719 72.15625 81.210938 72.503906 79.3125 73.359375 C 77.335938 74.257812 75.988281 75.234375 75.4375 75.660156 C 74.070312 76.722656 73.457031 77.496094 72.640625 78.511719 C 72.128906 79.144531 71.90625 79.53125 71.804688 79.816406 C 71.355469 80.203125 70.945312 80.613281 70.621094 81 C 68.867188 83.078125 68.234375 85.175781 67.925781 86.171875 L 67.90625 86.214844 C 67.050781 89.023438 65.640625 93.019531 64.027344 97.640625 C 60.476562 107.808594 56.027344 120.417969 54.683594 128.464844 C 52.4375 142.011719 55.765625 146.59375 56.867188 148.101562 C 57.867188 149.46875 61.234375 153.621094 65.292969 153.621094 C 65.601562 153.621094 65.925781 153.601562 66.234375 153.542969 C 69.152344 153.074219 70.109375 151.890625 71.84375 149.730469 C 72.375 149.058594 72.988281 148.304688 73.785156 147.429688 C 75.722656 145.230469 76.886719 143.660156 77.988281 142.132812 C 78.96875 140.789062 79.886719 139.527344 81.292969 137.917969 C 83.292969 135.59375 85.539062 133.433594 87.925781 131.5 C 88.679688 130.886719 95.601562 129.972656 133.332031 130.5625 C 134.457031 130.582031 135.273438 130.601562 135.742188 130.601562 C 136.617188 130.601562 138.660156 131.519531 140.882812 133.25 C 141.90625 134.046875 142.273438 134.535156 143.046875 135.59375 C 143.699219 136.492188 144.578125 137.691406 146.3125 139.75 C 147.800781 141.523438 149.457031 143.660156 150.78125 145.394531 C 151.84375 146.796875 152.699219 147.898438 153.167969 148.429688 C 155.433594 150.953125 158.046875 153.460938 160.273438 153.460938 C 160.433594 153.460938 160.578125 153.4375 160.742188 153.417969 C 165.351562 152.625 167.597656 150.058594 167.863281 149.753906 C 170.824219 146.878906 171.558594 143.457031 171.964844 141.625 C 172.375 139.789062 172.375 138.222656 172.375 135.105469 C 172.375 135.023438 172.375 131.640625 172.066406 128.585938 Z M 170.964844 141.378906 C 170.578125 143.109375 169.882812 146.351562 167.128906 149.019531 L 167.085938 149.058594 C 167.066406 149.078125 165.007812 151.625 160.558594 152.378906 C 158.476562 152.746094 155.167969 149.078125 153.925781 147.695312 C 153.476562 147.207031 152.597656 146.066406 151.597656 144.742188 C 150.273438 143.007812 148.617188 140.851562 147.109375 139.058594 C 145.394531 137.039062 144.515625 135.839844 143.882812 134.960938 C 143.066406 133.84375 142.660156 133.292969 141.515625 132.417969 C 139.3125 130.726562 137.007812 129.5625 135.742188 129.5625 C 135.273438 129.5625 134.433594 129.542969 133.332031 129.523438 C 128.171875 129.441406 117.394531 129.277344 107.496094 129.339844 C 88.824219 129.460938 87.703125 130.339844 87.273438 130.683594 C 84.824219 132.679688 82.558594 134.882812 80.519531 137.222656 C 79.089844 138.875 78.152344 140.15625 77.171875 141.523438 C 76.070312 143.03125 74.945312 144.578125 73.027344 146.757812 C 72.234375 147.652344 71.621094 148.429688 71.070312 149.101562 C 69.335938 151.238281 68.621094 152.136719 66.089844 152.542969 C 64.355469 152.828125 62.476562 152.15625 60.539062 150.546875 C 59.539062 149.710938 58.539062 148.632812 57.703125 147.511719 C 56.660156 146.085938 53.519531 141.765625 55.703125 128.648438 C 57.027344 120.683594 61.457031 108.113281 65.007812 98.027344 C 66.640625 93.382812 68.050781 89.390625 68.90625 86.539062 L 68.925781 86.5 C 69.210938 85.5625 69.804688 83.605469 71.417969 81.671875 C 71.621094 81.425781 71.84375 81.183594 72.109375 80.9375 C 73.234375 79.859375 74.90625 78.777344 76.96875 77.757812 C 80.621094 75.945312 83.804688 75.191406 85.007812 74.949219 C 88.519531 74.257812 91.742188 73.992188 94.601562 73.910156 C 96.703125 73.847656 98.578125 73.890625 100.210938 73.910156 C 100.886719 73.929688 101.519531 73.929688 102.089844 73.929688 C 105.4375 73.949219 107.109375 73.910156 108.722656 73.867188 C 111.414062 73.789062 113.945312 73.726562 124.007812 74.03125 C 126.722656 74.113281 129.148438 74.214844 131.3125 74.335938 C 146.171875 75.132812 149.128906 76.742188 151.863281 79.125 C 152.230469 79.449219 152.578125 79.714844 152.90625 80 C 153.292969 80.304688 153.660156 80.613281 154.027344 80.957031 C 155.128906 81.976562 156.148438 83.300781 157.433594 86.355469 C 159.375 90.941406 160.761719 94.546875 165.964844 109.761719 L 166.066406 110.046875 C 168.128906 116.039062 170.457031 122.839844 171.046875 128.6875 C 171.351562 131.683594 171.351562 135.042969 171.351562 135.0625 C 171.351562 138.121094 171.351562 139.648438 170.964844 141.378906 Z M 170.964844 141.378906 " fill-opacity="1" fill-rule="nonzero"/></g><path fill="#f8479d" d="M 107.519531 93.566406 C 107.519531 95.15625 106.230469 96.441406 104.640625 96.441406 C 103.046875 96.441406 101.761719 95.15625 101.761719 93.566406 C 101.761719 91.980469 103.046875 90.695312 104.640625 90.695312 C 106.230469 90.695312 107.519531 91.980469 107.519531 93.566406 Z M 82.84375 86.152344 C 78.640625 86.152344 75.210938 89.554688 75.210938 93.773438 C 75.210938 97.988281 78.621094 101.390625 82.84375 101.390625 C 87.050781 101.390625 90.476562 97.988281 90.476562 93.773438 C 90.476562 89.554688 87.050781 86.152344 82.84375 86.152344 Z M 114.519531 97.90625 L 111.90625 97.90625 C 110.742188 97.90625 109.804688 98.863281 109.804688 100.003906 C 109.804688 101.144531 110.761719 102.101562 111.90625 102.101562 L 114.519531 102.101562 C 115.679688 102.101562 116.621094 101.144531 116.621094 100.003906 C 116.621094 98.863281 115.660156 97.90625 114.519531 97.90625 Z M 141.882812 90.164062 C 144.109375 91.144531 146.699219 90.125 147.660156 87.90625 C 148.640625 85.683594 147.617188 83.097656 145.394531 82.140625 C 143.171875 81.160156 140.578125 82.179688 139.617188 84.402344 C 138.640625 86.621094 139.660156 89.1875 141.882812 90.164062 Z M 145.457031 97.765625 C 143.230469 96.785156 140.640625 97.804688 139.679688 100.027344 C 138.699219 102.246094 139.722656 104.832031 141.945312 105.789062 C 144.171875 106.769531 146.761719 105.75 147.722656 103.53125 C 148.679688 101.308594 147.679688 98.722656 145.457031 97.765625 Z M 124.414062 94.707031 C 125.046875 93.261719 124.394531 91.570312 122.925781 90.941406 C 121.457031 90.308594 119.78125 90.960938 119.148438 92.425781 C 118.515625 93.894531 119.171875 95.5625 120.640625 96.195312 C 122.109375 96.828125 123.78125 96.15625 124.414062 94.707031 Z M 137.191406 89.675781 C 134.964844 88.699219 132.375 89.71875 131.414062 91.9375 C 130.457031 94.160156 131.457031 96.746094 133.679688 97.703125 C 135.90625 98.679688 138.496094 97.664062 139.457031 95.441406 C 140.414062 93.222656 139.414062 90.65625 137.191406 89.675781 Z M 153.351562 89.960938 C 151.128906 88.984375 148.539062 90.003906 147.578125 92.222656 C 146.597656 94.445312 147.617188 97.03125 149.84375 97.988281 C 152.066406 98.964844 154.660156 97.949219 155.617188 95.726562 C 156.597656 93.507812 155.578125 90.917969 153.351562 89.960938 Z M 128.742188 104.058594 C 124.640625 104.058594 121.3125 107.378906 121.3125 111.472656 C 121.3125 115.570312 124.640625 118.890625 128.742188 118.890625 C 132.84375 118.890625 136.171875 115.570312 136.171875 111.472656 C 136.171875 107.378906 132.84375 104.058594 128.742188 104.058594 Z M 104.394531 109.703125 L 100.90625 109.703125 L 100.90625 106.464844 C 100.90625 105.261719 99.90625 104.261719 98.703125 104.261719 L 96.988281 104.261719 C 95.785156 104.261719 94.785156 105.261719 94.785156 106.464844 L 94.785156 109.703125 L 91.234375 109.703125 C 90.027344 109.703125 89.027344 110.699219 89.027344 111.902344 L 89.027344 113.574219 C 89.027344 114.773438 90.027344 115.773438 91.234375 115.773438 L 94.785156 115.773438 L 94.785156 119.316406 C 94.785156 120.519531 95.785156 121.515625 96.988281 121.515625 L 98.703125 121.515625 C 99.90625 121.515625 100.90625 120.519531 100.90625 119.316406 L 100.90625 115.773438 L 104.394531 115.773438 C 105.597656 115.773438 106.597656 114.773438 106.597656 113.574219 L 106.597656 111.902344 C 106.597656 110.699219 105.621094 109.703125 104.394531 109.703125 Z M 104.394531 109.703125 " fill-opacity="1" fill-rule="nonzero"/></svg>